# xmcd
#
# Track frame offsets: 
#        150
#        36910
#        48917
#        96346
#        110890
#        177353
#        193903
#        217415
#        234479
#
# Disc length: 3282 seconds
#
# Revision: 0
# Processed by: cddbd v1.5.2PL0 Copyright (c) Steve Scherf et al.
# Submitted via: ExactAudioCopy v0.99pb5
#
DISCID=8b0cd009
DTITLE=The Helpful Soul - First Album
DYEAR=1969
DGENRE=Blues
TTITLE0=01.Blues for my baby
TTITLE1=02.Fire
TTITLE2=03.Peace for fools
TTITLE3=04.You got me floatin
TTITLE4=05.Spoonfull
TTITLE5=06.Kansas city
TTITLE6=07.Crossroads
TTITLE7=08.Little wing
TTITLE8=09.Aladin s Theme
EXTD=
EXTT0=
EXTT1=
EXTT2=
EXTT3=
EXTT4=
EXTT5=
EXTT6=
EXTT7=
EXTT8=
PLAYORDER=
